.
..............................Site Info...........................

 -   http://www.scenetime.com  *_*   

SceneTime is going to Close sign up on march/1, hurry up! get in before the doors are closed.

     We care to share . Join us on  http://www.scenetime.com 

    Be the first to get new release at  http://www.scenetime.com

        Seed back for speed


...................................NFO:.................................................








































          
          
              
              
                    
                    
                    
                    
Cloudy.With.A.Chance.Of.Meatballs.2009.BDRiP.AC3-5.1.XviD-SiC

Poster:
[img]http://img24.imageshack.us/img24/25/cloudybd.png[/img]

IMDB Link: 
http://www.imdb.com/title/tt0844471

Description:
Inventor Flint Lockwood creates a machine that makes clouds rain food, enabling the down-and-out citizens of Chewandswallow to feed themselves. But when the falling food reaches gargantuan proportions, Flint must scramble to avert disaster. Can he regain control of the machine and put an end to the wild weather before the town is destroyed?

Animation | Comedy | Family

General:
Complete name                            : Cloudy.With.A.Chance.Of.Meatballs.2009.BDRiP.AC3-5.1.XviD-SiC.avi
Format                                   : AVI
Format/Info                              : Audio Video Interleave
File size                                : 1.33 GiB
Duration                                 : 1h 29mn
Overall bit rate                         : 2 125 Kbps

Video
ID                                       : 0
Format                                   : MPEG-4 Visual
Format profile                           : Advanced Simple@L5
Format settings, BVOP                    : 3
Format settings, QPel                    : No
Format settings, GMC                     : No warppoints
Format settings, Matrix                  : Default (H.263)
Codec ID                                 : XVID
Codec ID/Hint                            : XviD
Duration                                 : 1h 29mn
Bit rate                                 : 1 733 Kbps
Width                                    : 720 pixels
Height                                   : 400 pixels
Display aspect ratio                     : 16:9
Frame rate                               : 23.976 fps
Color space                              : YUV
Chroma subsampling                       : 4:2:0
Bit depth                                : 8 bits
Scan type                                : Progressive
Compression mode                         : Lossy
Bits/(Pixel*Frame)                       : 0.251
Stream size                              : 1.09 GiB (82%)
Writing library                          : XviD 1.2.1 (UTC 2008-12-04)

Audio
ID                                       : 1
Format                                   : AC-3
Format/Info                              : Audio Coding 3
Mode extension                           : CM (complete main)
Codec ID                                 : 2000
Duration                                 : 1h 29mn
Bit rate mode                            : Constant
Bit rate                                 : 384 Kbps
Channel(s)                               : 6 channels
Channel positions                        : Front: L C R, Side: L R, LFE
Sampling rate                            : 48.0 KHz
Bit depth                                : 16 bits
Compression mode                         : Lossy
Stream size                              : 247 MiB (18%)
Alignment                                : Aligned on interleaves
Interleave, duration                     : 64 ms (1.53 video frames)
Interleave, preload duration             : 192 ms
Title                                    : 5.1

Screenshots:
[IMG]http://img535.imageshack.us/img535/4138/cloudywithachanceofmeatq.jpg[/IMG]
[IMG]http://img864.imageshack.us/img864/8051/cloudywithachanceofmeat.jpg[/IMG]
[IMG]http://img710.imageshack.us/img710/1518/cloudywithachanceofmeateu.jpg[/IMG]
[IMG]http://img210.imageshack.us/img210/2690/cloudywithachanceofmeatc.jpg[/IMG]
[IMG]http://img812.imageshack.us/img812/6421/cloudywithachanceofmeatz.jpg[/IMG]
[IMG]http://img585.imageshack.us/img585/5700/cloudywithachanceofmeatf.jpg[/IMG]

Note:  Normal stuff done, turned out nice :)

Source:  Ours

Enjoy!

Respects to T00NG0D, ELEKTRI4KA, PA, YeFsTe, MrRep and everyone in the struggle...